<svg width="84" height="84" viewBox="0 0 84 84" fill="none" xmlns="http://www.w3.org/2000/svg">
<rect width="84" height="84" fill="white"/>
<path d="M61.1368 64.3812C59.3991 65.0067 57.7309 65.7018 56.1323 66.3273V60.6278H57.1749C61.5538 60.6278 64.7511 59.0987 66.0022 56.1794V56.8744C66.0022 60.2802 64.0561 63.3386 61.1368 64.3812ZM42.5785 55.2063C42.9955 56.9439 43.9686 58.2646 45.4283 59.2376C46.9574 60.1413 48.9731 60.6278 51.2669 60.6278H52.796V67.6479C47.9305 69.5942 44.1076 71.1233 42.5785 71.7489V65.7018V55.2063ZM42.509 12.3901C54.2556 19.6883 63.0135 19.4798 65.9328 19.6188V41.3744H42.509V12.3901ZM57.5919 45.6839H56.1323V42.417H66.0022V49.9933C65.4462 48.7421 64.6121 47.7691 63.5 47.074C61.9709 46.1009 59.8857 45.6839 57.5919 45.6839ZM56.1323 46.518H57.2444C61.6928 46.518 63.083 49.1592 63.083 53.1905C63.083 56.8744 61.6233 59.7937 56.8273 59.7937H56.1323V46.518ZM51.7534 45.6839C46.7489 45.6839 43.4125 47.6301 42.5785 51.3139V42.417H52.796V45.6839H51.7534ZM52.796 59.7937H51.6143C47.305 59.7937 45.8453 57.222 45.8453 53.2601C45.8453 49.5067 47.305 46.5875 52.1009 46.5875H52.796V59.7937ZM41.4664 15.2399V41.3744H38.1301L28.8161 27.8902C29.9978 26.5 32.222 23.6502 32.9865 22.7466C33.8206 21.704 37.8521 16.2825 39.2421 14.6144C39.4507 14.4058 41.1883 13.3632 41.4664 14.9619C41.4664 15.1009 41.4664 15.1704 41.4664 15.2399ZM41.4664 71.7489C39.1727 70.7757 31.4574 67.6479 22.9081 64.3812C19.9888 63.2691 18.0426 60.2108 18.0426 56.805V42.417H41.4664V65.7018V71.7489ZM18.0426 19.2018H18.3206C18.8072 19.2018 19.5718 19.2713 20.5448 19.2018V41.305H18.0426V19.2018ZM24.0202 41.3744V30.3228L25.9664 30.1143L33.7511 41.3744H24.0202ZM37.2265 14.8229C37.435 14.8229 37.5045 15.0314 37.3654 15.2399C36.3228 16.9776 31.7354 22.2601 30.8318 23.3722L26.0359 29.2108L24.0202 29.4888V19.4798C24.0202 19.3408 24.0897 19.2018 24.2287 19.1323L24.6457 18.9238C24.8543 18.7848 25.0628 18.7152 25.3408 18.7152C27.9125 18.1592 31.1098 17.1166 35.1413 15.5874C35.6278 15.3094 36.7399 14.8229 37.2265 14.8229ZM66.7669 18.7848C66.6278 18.6457 66.3498 18.5762 66.1413 18.5762C58.7735 18.8543 48.139 15.3094 42.2309 11.139L42.0224 11L41.8139 11.139C30.3453 18.6457 19.6413 18.5067 17.9731 18.4372C17.6951 18.4372 17.4865 18.5067 17.278 18.7152C17.0695 18.9238 17 19.1323 17 19.4103V41.9305V56.8744C17 60.7669 19.2242 64.1727 22.5605 65.4238C32.8476 69.3161 41.7444 73 41.8834 73H42.3005C42.3699 72.9305 51.3363 69.3161 61.6233 65.4238C64.9596 64.1727 67.1839 60.6973 67.1839 56.8744V41.861V19.4103C67.0448 19.2018 66.9058 18.9238 66.7669 18.7848Z" fill="#34663B"/>
</svg>
