<svg width="512" height="512" viewBox="0 0 512 512" fill="none" xmlns="http://www.w3.org/2000/svg">
<rect width="512" height="512" fill="white"/>
<path d="M369.844 103.513C302.54 93.5958 276.625 136.65 212.38 111.245C148.135 85.8406 166.85 157.362 132.659 178.073C-62.9564 312.787 132.658 261.999 132.659 290.995C132.659 319.991 62.2948 284.691 46.8184 336.56C31.3421 388.428 81.9103 416.614 142.016 402.521C202.122 388.428 221.738 391.67 276.625 410.22C331.513 428.77 444.346 455.605 452.624 366.636C460.902 277.668 329.203 264.183 369.844 221.657C410.486 179.131 437.149 113.43 369.844 103.513Z" fill="white"/>
<path d="M190.508 278C190.508 278 189.899 278 172.813 278C155.728 278 155.73 309.013 172.814 309.013C189.899 309.013 190.51 309.013 190.51 309.013" stroke="#444444" stroke-width="9" stroke-linecap="round"/>
<path d="M334.999 278C334.999 278 334.389 278 317.304 278C300.218 278 300.22 309.013 317.304 309.013C334.389 309.013 335 309.013 335 309.013M335 293.506L320.355 293.506" stroke="#444444" stroke-width="9" stroke-linecap="round"/>
<path d="M256.135 278C273.543 278 256.757 278 274.164 278C291.571 278 291.574 309.013 274.165 309.013C274.165 309.013 273.543 309.013 256.136 309.013L256.135 293.506" stroke="#444444" stroke-width="9" stroke-linecap="round" stroke-linejoin="round"/>
<path d="M220.369 309.013C202.815 309.013 202.814 278 220.369 278H225.699C243.252 278 243.254 309.013 225.699 309.013H220.369Z" stroke="#444444" stroke-width="9" stroke-linecap="round"/>
<path d="M137.252 332C137.252 332 119.648 332 105.563 332C91.4781 332 91.4804 351 105.561 351C119.643 351 127.058 351 127.058 351C141.139 351 141.323 370 127.057 370C112.79 370 95.7413 370 95.7413 370" stroke="#444444" stroke-width="11" stroke-linecap="round"/>
<path d="M181.667 354.49C183.329 354.49 191.682 354.49 191.682 354.49C205.389 354.49 205.568 332 191.681 332C177.793 332 161.197 332 161.197 332V370" stroke="#444444" stroke-width="11" stroke-linecap="round" stroke-linejoin="round"/>
<path d="M248.239 360.952C248.239 360.952 261.711 360.952 265.391 360.952C266.338 365.778 266.988 370 266.988 370C266.988 370 262.405 332 246.572 332C230.739 332 226.156 370 226.156 370" stroke="#444444" stroke-width="11" stroke-linecap="round" stroke-linejoin="round"/>
<path d="M331.947 332C331.947 332 331.131 332 308.266 332C285.4 332 285.402 368.219 308.267 368.219C331.131 368.219 331.949 368.219 331.949 368.219" stroke="#444444" stroke-width="11" stroke-linecap="round"/>
<path d="M400.618 332C400.618 332 399.741 332 375.143 332C350.545 332 350.547 370 375.144 370C399.741 370 400.62 370 400.62 370M400.621 351L379.536 351" stroke="#444444" stroke-width="11" stroke-linecap="round"/>
<path d="M171.31 192.563C171.748 192.747 171.93 193.24 171.586 193.383C171.586 193.383 171.355 192.95 171.31 192.563ZM171.31 192.563C171.132 191.026 174.144 189.819 182.241 183.229C181.955 175.687 184.103 172.488 203.208 171.939C199.936 170.587 183.638 162.091 180.91 159.147C169.775 147.129 206.28 132.794 214.915 132.268C223.55 131.743 233.528 134.929 245.37 142.122C288.445 119.246 318.42 108.364 339.272 107.16C359.916 105.967 389.002 111.029 393.662 131.185C398.323 151.302 382.427 167.568 366.021 180.187C349.45 192.932 320.029 203.782 272.51 214.676C268.233 227.878 262.39 237.372 255.511 242.63C248.631 247.888 211.652 260.945 212.25 244.553C212.397 240.538 219.199 223.43 220.795 220.264C205.974 232.362 203.868 231.295 197.564 225.449C185.325 225.818 183.848 225.917 183.329 223.799C183.329 223.799 184.342 225.004 182.795 225.384C158.048 230.185 137.783 233.912 128.82 235.538C119.857 237.165 117.895 233.403 117.174 231.433C116.453 229.463 115.477 225.337 123.345 220.753C131.213 216.17 161.341 198.143 170.149 192.534C170.737 192.185 171.108 192.334 171.31 192.563Z" fill="white"/>
<path d="M204.923 221.967L189.794 180.891L208.275 178.871L212.543 168.375L186.215 154.063C218.524 127.923 229.541 143.227 245.341 151.178C276.014 134.571 291.875 125.825 320.309 118.074C348.078 110.505 381.666 115.491 386.346 131.812C391.026 148.133 373.525 167.506 350.245 180.739C326.964 193.972 303.867 199.282 265.679 208.041C259.189 244.289 236.501 242.613 220.133 244.115L230.284 215.77L220.274 211.52L204.923 221.967Z" fill="#444444"/>
<path d="M207.511 213.686L196.926 185.101L210.839 183.317L219.088 166.254L195.911 153.544C218.626 136.176 227.369 149.192 243.946 157.629C273.419 139.955 295.586 129.795 321.39 122.388C347.194 114.98 378.36 120.796 381.853 133.511C385.346 146.225 367.383 164.075 348.319 176.169C329.255 188.262 299.105 194.704 260.917 203.464C255.233 238.066 240.042 236.401 227.455 238.805L236.425 213.074L219.234 205.987L207.511 213.686Z" fill="white"/>
<path d="M207.522 213.686L198.051 188.062L212.946 185.915L221.33 167.684L198.802 155.285C218.925 139.996 229.695 153.944 244.063 160.957C273.536 143.282 309.73 127.409 331.4 123.65C353.071 119.89 378.568 124.64 381.865 133.511C385.358 146.226 367.395 164.075 348.331 176.169C329.267 188.263 299.117 194.704 260.929 203.464C255.244 238.067 240.054 236.401 227.467 238.806L236.436 213.074L219.245 205.988L207.522 213.686Z" fill="#8E49FF"/>
<path d="M122.032 229.598C122.932 232.063 126.083 231.461 128.806 231.045C131.204 230.68 171.282 222.383 180.845 220.402C182.326 220.095 182.414 219.011 181.813 217.551L174.884 198.857C174.6 198.091 173.891 196.671 172.385 197.555C164.187 202.273 128.338 222.905 126.251 224.146C123.894 225.547 121.132 227.133 122.032 229.598Z" fill="#444444"/>
<path d="M202.022 218.076L190.497 186.477C190.058 185.29 189.116 184.863 188.135 185.29L176.89 193.815C175.781 194.606 175.415 195.218 176.016 196.759L184.23 218.938C184.739 220.314 185.58 220.726 186.906 220.866L201.172 220.499C202.068 220.184 202.506 219.508 202.022 218.076Z" fill="#444444"/>
<path d="M175.988 216.371L171.98 205.534L133.376 225.425L175.988 216.371Z" fill="#ED9428"/>
<path d="M171.247 203.566L171.977 205.535L133.378 225.417L171.247 203.566Z" fill="#F5F5F5"/>
<path d="M195.872 215.723L188.212 195.027L182.094 199.552L188.285 216.309L195.872 215.723Z" fill="#C84152"/>
<path d="M188.234 195.028L186.956 191.582L180.816 196.1L182.094 199.549L188.234 195.028Z" fill="white"/>
<ellipse cx="19.9688" cy="19.9617" rx="19.9688" ry="19.9617" transform="matrix(0.995719 -0.0924303 0.0926201 0.995701 307.008 134.035)" fill="#444444"/>
<ellipse cx="16.2965" cy="16.2907" rx="16.2965" ry="16.2907" transform="matrix(0.995719 -0.0924303 0.0926201 0.995701 311.287 137.586)" fill="white"/>
<ellipse cx="12.0909" cy="12.0867" rx="12.0909" ry="12.0867" transform="matrix(0.995719 -0.0924303 0.0926201 0.995701 315.863 141.387)" fill="#444444"/>
<ellipse cx="8.41108" cy="8.40811" rx="8.41108" ry="8.40811" transform="matrix(0.995719 -0.0924304 0.09262 0.995701 320.344 144.133)" fill="white"/>
<ellipse cx="8.41108" cy="8.40811" rx="8.41108" ry="8.40811" transform="matrix(0.995719 -0.0924303 0.0926201 0.995701 320.539 146.23)" fill="#444444"/>
</svg>
