<svg width="500" height="500" viewBox="0 0 500 500" fill="none" xmlns="http://www.w3.org/2000/svg">
<rect width="500" height="500" fill="white"/>
<g clip-path="url(#clip0_106_2)">
<path d="M432.866 243.188C432.854 243.142 432.825 243.105 432.809 243.06C432.72 242.789 432.611 242.526 432.461 242.281C432.4 242.18 432.311 242.097 432.238 241.999C432.108 241.83 431.983 241.657 431.825 241.506C431.72 241.409 431.594 241.33 431.477 241.243C431.347 241.145 431.229 241.032 431.084 240.946C431.051 240.927 431.011 240.92 430.978 240.901C430.946 240.882 430.922 240.856 430.885 240.837L357.978 203.862C356.795 203.264 355.378 203.245 354.179 203.82L192.163 281.464C192.106 281.49 192.066 281.536 192.013 281.566C191.948 281.6 191.871 281.618 191.806 281.66C191.685 281.735 191.588 281.833 191.478 281.919C191.369 282.002 191.256 282.081 191.154 282.175C190.992 282.325 190.859 282.495 190.729 282.668C190.66 282.765 190.579 282.852 190.514 282.953C190.377 283.179 190.275 283.42 190.19 283.668C190.166 283.736 190.13 283.792 190.109 283.86C190.024 284.168 189.976 284.488 189.976 284.811V347.667C189.976 349.141 190.903 350.48 192.349 351.089L269.307 383.6C269.367 383.626 269.436 383.615 269.497 383.638C269.975 383.818 270.473 383.939 270.984 383.939C271.34 383.939 271.692 383.886 272.037 383.799C272.15 383.769 272.251 383.72 272.365 383.683C272.531 383.626 272.705 383.585 272.863 383.506L430.829 306.626C432.165 305.979 433 304.696 433 303.297V244.143C433 243.816 432.955 243.496 432.866 243.188ZM198.076 290.698L266.933 320.309V374.337L198.076 345.245V290.698ZM275.034 373.96V320.602L424.899 250.258V301.022L275.034 373.96Z" fill="#EB6C44"/>
</g>
<g clip-path="url(#clip1_106_2)">
<path d="M309.89 155.347C309.878 155.302 309.85 155.265 309.834 155.22C309.744 154.949 309.635 154.686 309.485 154.441C309.424 154.339 309.335 154.257 309.262 154.159C309.133 153.99 309.007 153.817 308.849 153.666C308.744 153.568 308.618 153.489 308.501 153.403C308.371 153.305 308.254 153.192 308.108 153.106C308.076 153.087 308.035 153.08 308.003 153.061C307.97 153.042 307.946 153.016 307.91 152.997L235.002 116.022C233.82 115.424 232.402 115.405 231.203 115.98L69.1872 193.624C69.1305 193.65 69.09 193.695 69.0374 193.726C68.9725 193.759 68.8956 193.778 68.8308 193.82C68.7093 193.895 68.6121 193.993 68.5027 194.079C68.3933 194.162 68.2799 194.241 68.1787 194.335C68.0167 194.485 67.883 194.655 67.7534 194.828C67.6845 194.925 67.6035 195.012 67.5387 195.113C67.401 195.339 67.2997 195.58 67.2147 195.828C67.1904 195.896 67.1539 195.952 67.1337 196.02C67.0486 196.328 67 196.648 67 196.971V259.827C67 261.301 67.9275 262.64 69.3735 263.249L146.331 295.76C146.392 295.786 146.461 295.775 146.521 295.798C146.999 295.978 147.498 296.099 148.008 296.099C148.364 296.099 148.717 296.046 149.061 295.959C149.174 295.929 149.276 295.88 149.389 295.843C149.555 295.786 149.729 295.745 149.887 295.666L307.853 218.786C309.19 218.139 310.024 216.856 310.024 215.457V156.303C310.024 155.976 309.979 155.656 309.89 155.347ZM75.1008 202.857L143.958 232.468V286.496L75.1008 257.404V202.857ZM152.058 286.12V232.762L301.923 162.418V213.182L152.058 286.12Z" fill="#3D3D3D"/>
</g>
<defs>
<clipPath id="clip0_106_2">
<rect width="243.024" height="225.665" fill="white" transform="translate(189.976 180.84)"/>
</clipPath>
<clipPath id="clip1_106_2">
<rect width="243.024" height="225.665" fill="white" transform="translate(67 93)"/>
</clipPath>
</defs>
</svg>
