<svg width="512" height="512" viewBox="0 0 512 512" fill="none" xmlns="http://www.w3.org/2000/svg">
<g clip-path="url(#clip0_691_2839)">
<rect width="512" height="512" fill="#444444"/>
<path d="M117.988 278.068C118.632 277.985 119.186 278.442 118.877 278.848C118.877 278.848 118.307 278.495 117.988 278.068ZM117.988 278.068C116.721 276.375 119.455 272.881 124.505 259.535C118.989 250.824 119.332 245.569 141.548 231.797C136.751 232.448 111.643 233.609 106.396 232.006C84.9759 225.461 118.302 183.452 128.152 176.9C138.003 170.348 151.99 167.256 170.933 167.618C206.164 111.008 234.139 77.5647 257.97 61.8182C281.564 46.2288 319.434 32.2262 338.785 52.8319C358.109 73.391 350.48 103.522 339.744 129.696C328.899 156.134 301.558 189.158 252.845 234.668C256.852 253.2 256.461 268.426 251.935 279.362C247.41 290.299 212.646 331.122 202.099 311.351C199.515 306.508 195.812 281.629 195.525 276.794C186.305 301.263 183.083 301.449 171.614 298.876C157.395 307.719 155.716 308.851 153.649 306.706C153.649 306.706 155.674 307.433 154.105 308.944C128.137 331.614 106.732 349.938 97.2492 358.015C87.7667 366.093 82.864 362.998 80.6585 361.166C78.4531 359.335 74.4659 355.131 80.6232 344.313C86.7805 333.495 110.03 291.508 116.595 278.832C117.05 278.016 117.591 277.937 117.988 278.068Z" fill="white"/>
<path d="M177.926 289.709L131.833 251.586L152.301 236.504L150.141 221.176L109.18 222.358C129.438 169.289 152.974 179.796 177.118 178.335C201.987 137.649 214.738 116.424 243.041 87.737C270.681 59.7212 313.825 42.5366 330.565 58.5992C347.305 74.6616 339.911 109.565 321.468 141.187C303.024 172.808 279.356 194.946 240.212 231.525C257.426 278.796 229.445 292.402 211.121 305.42L203.662 264.968L188.907 266.824L177.926 289.709Z" fill="#444444"/>
<path d="M175.297 278.147L143.153 251.656L158.381 239.991L156.42 214.171L120.286 215.081C135.221 178.964 154.497 188.331 179.894 186.909C202.611 145.787 221.848 118.561 247.277 92.0857C272.706 65.6105 313.554 51.0707 326.415 63.6887C339.276 76.3067 330.29 109.729 316.049 137.109C301.809 164.489 270.579 192.808 231.434 229.387C248.471 274.162 229.364 282.629 216.13 294.116L209.069 257.562L183.874 261.001L175.297 278.147Z" fill="white"/>
<path d="M175.311 278.14L146.518 254.382L162.657 241.613L160.054 214.322L124.899 215.152C138.199 183.271 160.511 192.346 182.317 190.76C205.035 149.637 236.937 106.027 259.982 86.7004C283.027 67.3742 316.439 55.4688 326.429 63.6816C339.29 76.2996 330.304 109.722 316.064 137.102C301.823 164.482 270.593 192.801 231.449 229.379C248.485 274.154 229.378 282.622 216.145 294.109L209.084 257.555L183.889 260.994L175.311 278.14Z" fill="#8E49FF"/>
<path d="M85.1428 355.663C87.8997 357.956 91.2129 355.08 94.1481 352.719C96.7319 350.64 138.43 313.309 148.378 304.4C149.918 303.021 149.278 301.68 147.565 300.368L126.536 283.049C125.673 282.338 123.86 281.148 122.687 283.227C116.232 294.431 88.0048 343.426 86.3891 346.324C84.564 349.599 82.386 353.369 85.1428 355.663Z" fill="#444444"/>
<path d="M171.822 287.105L136.497 257.7C135.162 256.6 133.755 256.742 132.888 257.921L125.444 275.714C124.675 277.41 124.662 278.384 126.431 279.791L151.373 300.345C152.921 301.62 154.198 301.529 155.862 300.783L172.48 290.551C173.324 289.564 173.377 288.464 171.822 287.105Z" fill="#444444"/>
<path d="M139.865 302.977L127.685 292.931L95.692 342.942L139.865 302.977Z" fill="#ED9428"/>
<path d="M125.467 291.105L127.682 292.929L95.6876 342.927L125.467 291.105Z" fill="#F5F5F5"/>
<path d="M162.932 288.548L139.665 269.366L135.536 278.914L154.363 294.453L162.932 288.548Z" fill="#C84152"/>
<path d="M139.694 269.355L135.817 266.164L131.658 275.718L135.537 278.915L139.694 269.355Z" fill="white"/>
<ellipse cx="27.308" cy="27.2726" rx="27.308" ry="27.2726" transform="matrix(0.814617 -0.579999 0.580567 0.814212 238.268 115.727)" fill="#444444"/>
<ellipse cx="22.286" cy="22.2571" rx="22.286" ry="22.2571" transform="matrix(0.814617 -0.579999 0.580567 0.814212 245.766 116.98)" fill="white"/>
<ellipse cx="16.5347" cy="16.5133" rx="16.5347" ry="16.5133" transform="matrix(0.814617 -0.579999 0.580567 0.814212 253.787 118.324)" fill="#444444"/>
<ellipse cx="11.5024" cy="11.4875" rx="11.5024" ry="11.4875" transform="matrix(0.814618 -0.579999 0.580567 0.814212 260.973 118.488)" fill="white"/>
<ellipse cx="11.5024" cy="11.4875" rx="11.5024" ry="11.4875" transform="matrix(0.814618 -0.579999 0.580567 0.814212 262.643 120.832)" fill="#444444"/>
<path d="M78.6375 444V382.4H96.4135V405.192L114.278 382.4H136.542L113.574 411L139.182 444H116.39L101.87 424.376L96.4135 430.272V444H78.6375ZM144.093 444V398.24H161.693V444H144.093ZM152.893 392.344C150.165 392.344 147.789 391.523 145.765 389.88C143.77 388.208 142.773 385.92 142.773 383.016C142.773 380.112 143.77 377.839 145.765 376.196C147.789 374.524 150.165 373.688 152.893 373.688C155.621 373.688 157.982 374.524 159.977 376.196C162.001 377.839 163.013 380.112 163.013 383.016C163.013 385.92 162.001 388.208 159.977 389.88C157.982 391.523 155.621 392.344 152.893 392.344ZM191.894 445.32C187.612 445.32 183.754 444.352 180.322 442.416C176.92 440.451 174.221 437.664 172.226 434.056C170.261 430.419 169.278 426.107 169.278 421.12C169.278 417.659 169.836 414.461 170.95 411.528C172.094 408.595 173.693 406.043 175.746 403.872C177.8 401.672 180.22 399.971 183.006 398.768C185.822 397.536 188.902 396.92 192.246 396.92C195.326 396.92 198.186 397.521 200.826 398.724C203.496 399.897 205.886 401.789 207.998 404.4L203.862 408.448V380.64H221.462V444H206.502V431.592L208.878 435.552C207.793 438.485 205.71 440.847 202.63 442.636C199.58 444.425 196.001 445.32 191.894 445.32ZM195.15 430.36C196.793 430.36 198.274 429.993 199.594 429.26C200.944 428.497 202 427.427 202.762 426.048C203.554 424.669 203.95 423.027 203.95 421.12C203.95 419.213 203.569 417.571 202.806 416.192C202.044 414.813 200.988 413.757 199.638 413.024C198.318 412.261 196.822 411.88 195.15 411.88C193.478 411.88 191.968 412.261 190.618 413.024C189.298 413.757 188.257 414.813 187.494 416.192C186.732 417.571 186.35 419.213 186.35 421.12C186.35 423.027 186.732 424.669 187.494 426.048C188.286 427.427 189.342 428.497 190.662 429.26C192.012 429.993 193.508 430.36 195.15 430.36ZM233.669 444V382.4H251.445V404.136H272.037V382.4H289.813V444H272.037V420.328H251.445V444H233.669ZM320.174 445.32C315.95 445.32 312.46 444.513 309.702 442.9C306.974 441.287 304.936 438.984 303.586 435.992C302.266 432.971 301.606 429.363 301.606 425.168V398.24H319.206V422.792C319.206 424.904 319.705 426.547 320.702 427.72C321.7 428.893 323.225 429.48 325.278 429.48C326.598 429.48 327.728 429.201 328.666 428.644C329.605 428.057 330.309 427.265 330.778 426.268C331.277 425.271 331.526 424.112 331.526 422.792V398.24H349.126V444H334.166V439.512C332.905 440.861 331.218 442.167 329.106 443.428C326.994 444.689 324.017 445.32 320.174 445.32ZM389.708 445.32C386.98 445.32 384.457 444.909 382.14 444.088C379.852 443.296 377.887 442.167 376.244 440.7C374.631 439.233 373.457 437.517 372.724 435.552L375.1 431.592V444H360.14V380.64H377.652V408.448L373.604 404.4C375.716 401.789 378.092 399.897 380.732 398.724C383.401 397.521 386.276 396.92 389.356 396.92C393.815 396.92 397.775 397.976 401.236 400.088C404.697 402.2 407.411 405.089 409.376 408.756C411.341 412.393 412.324 416.515 412.324 421.12C412.324 424.845 411.752 428.204 410.608 431.196C409.464 434.188 407.865 436.74 405.812 438.852C403.788 440.935 401.397 442.533 398.64 443.648C395.912 444.763 392.935 445.32 389.708 445.32ZM386.452 430.36C388.095 430.36 389.576 429.993 390.896 429.26C392.245 428.497 393.301 427.427 394.064 426.048C394.856 424.669 395.252 423.027 395.252 421.12C395.252 419.213 394.871 417.571 394.108 416.192C393.345 414.813 392.289 413.757 390.94 413.024C389.62 412.261 388.124 411.88 386.452 411.88C384.78 411.88 383.269 412.261 381.92 413.024C380.6 413.757 379.559 414.813 378.796 416.192C378.033 417.571 377.652 419.213 377.652 421.12C377.652 423.027 378.033 424.669 378.796 426.048C379.588 427.427 380.644 428.497 381.964 429.26C383.313 429.993 384.809 430.36 386.452 430.36Z" fill="white"/>
<ellipse cx="351.438" cy="287.597" rx="37.4379" ry="37.5968" fill="url(#paint0_linear_691_2839)"/>
<ellipse cx="408.776" cy="315.373" rx="19.2249" ry="19.3065" fill="url(#paint1_linear_691_2839)"/>
<ellipse cx="369.314" cy="344.837" rx="10.1183" ry="10.1613" fill="url(#paint2_linear_691_2839)"/>
</g>
<defs>
<linearGradient id="paint0_linear_691_2839" x1="351.438" y1="250" x2="351.438" y2="325.194" gradientUnits="userSpaceOnUse">
<stop stop-color="#C84152"/>
<stop offset="1" stop-color="#8E49FF"/>
</linearGradient>
<linearGradient id="paint1_linear_691_2839" x1="408.776" y1="296.066" x2="408.776" y2="334.679" gradientUnits="userSpaceOnUse">
<stop stop-color="#ED9428"/>
<stop offset="1" stop-color="#C84152"/>
</linearGradient>
<linearGradient id="paint2_linear_691_2839" x1="369.314" y1="334.676" x2="369.314" y2="354.998" gradientUnits="userSpaceOnUse">
<stop stop-color="#8E49FF"/>
<stop offset="1" stop-color="#ED9428"/>
</linearGradient>
<clipPath id="clip0_691_2839">
<rect width="512" height="512" fill="white"/>
</clipPath>
</defs>
</svg>
