<svg width="1920" height="1080" viewBox="0 0 1920 1080" fill="none" xmlns="http://www.w3.org/2000/svg">
<path d="M46.775 318V73H135.675C161.808 73 184.675 78.1916 204.275 88.575C223.875 98.8417 239.1 113.192 249.95 131.625C260.8 149.942 266.225 171.233 266.225 195.5C266.225 213.817 263.133 230.5 256.95 245.55C250.767 260.6 241.9 273.55 230.35 284.4C218.917 295.133 205.208 303.417 189.225 309.25C173.242 315.083 155.392 318 135.675 318H46.775ZM117.475 252.2H133.925C142.558 252.2 150.375 251.092 157.375 248.875C164.492 246.542 170.617 243.042 175.75 238.375C181 233.592 185.025 227.642 187.825 220.525C190.625 213.408 192.025 205.067 192.025 195.5C192.025 182.667 189.575 172.05 184.675 163.65C179.775 155.25 172.95 149.008 164.2 144.925C155.45 140.842 145.358 138.8 133.925 138.8H117.475V252.2ZM304.832 318V73H486.482V133.9H375.532V165.75H466.532V221.4H375.532V256.4H487.882V318H304.832ZM622.068 323.25C602.468 323.25 583.393 320.275 564.843 314.325C546.41 308.375 530.777 299.8 517.943 288.6L550.668 236.45C555.452 242.05 561.868 246.95 569.918 251.15C577.968 255.35 586.602 258.617 595.818 260.95C605.035 263.283 613.785 264.45 622.068 264.45C631.402 264.45 639.102 263.108 645.168 260.425C651.235 257.742 654.268 253.95 654.268 249.05C654.268 244.267 651.935 240.358 647.268 237.325C642.602 234.175 633.968 230.967 621.368 227.7L603.168 222.8C576.568 215.567 557.552 205.533 546.118 192.7C534.685 179.75 528.968 164.467 528.968 146.85C528.968 135.767 531.36 125.442 536.143 115.875C541.043 106.308 547.81 97.9666 556.443 90.85C565.193 83.6167 575.46 78.0167 587.243 74.05C599.027 70.0833 611.802 68.1 625.568 68.1C645.402 68.1 663.835 71.0167 680.868 76.85C698.018 82.5667 711.668 90.5 721.818 100.65L687.868 151.4C683.785 146.617 678.535 142.417 672.118 138.8C665.702 135.067 658.643 132.15 650.943 130.05C643.243 127.95 635.485 126.9 627.668 126.9C621.485 126.9 616.118 127.658 611.568 129.175C607.018 130.575 603.46 132.558 600.893 135.125C598.443 137.575 597.218 140.433 597.218 143.7C597.218 146.617 598.268 149.008 600.368 150.875C602.468 152.742 605.91 154.55 610.693 156.3C615.593 158.05 622.185 160.15 630.468 162.6L648.318 167.85C674.918 175.667 694.052 185.292 705.718 196.725C717.385 208.158 723.218 222.917 723.218 241C723.218 257.217 719.018 271.508 710.618 283.875C702.218 296.242 690.435 305.925 675.268 312.925C660.102 319.808 642.368 323.25 622.068 323.25ZM758.396 318V73H829.096V318H758.396ZM1006.71 323.25C988.043 323.25 970.368 320.392 953.685 314.675C937.002 308.842 922.185 300.442 909.235 289.475C896.402 278.508 886.252 265.15 878.785 249.4C871.435 233.533 867.76 215.567 867.76 195.5C867.76 175.667 871.318 157.875 878.435 142.125C885.552 126.375 895.41 112.958 908.01 101.875C920.61 90.7917 935.135 82.3333 951.585 76.5C968.035 70.6667 985.593 67.75 1004.26 67.75C1012.78 67.75 1021.88 68.3917 1031.56 69.675C1041.24 70.9583 1051.28 73.35 1061.66 76.85C1072.16 80.35 1082.66 85.425 1093.16 92.075L1064.11 146.5C1056.06 141.25 1047.6 137.4 1038.74 134.95C1029.99 132.383 1020.36 131.1 1009.86 131.1C998.893 131.1 989.093 132.617 980.46 135.65C971.827 138.567 964.535 142.825 958.585 148.425C952.752 154.025 948.26 160.85 945.11 168.9C942.077 176.95 940.56 186.05 940.56 196.2C940.56 211.133 943.768 223.5 950.185 233.3C956.718 243.1 965.352 250.392 976.085 255.175C986.818 259.958 998.543 262.35 1011.26 262.35C1014.99 262.35 1018.9 262.117 1022.99 261.65C1027.07 261.067 1031.09 260.367 1035.06 259.55V226.65H988.51V171.35H1096.31V303.3C1088.38 307.383 1079.22 310.942 1068.84 313.975C1058.45 317.008 1047.84 319.283 1036.99 320.8C1026.14 322.433 1016.04 323.25 1006.71 323.25ZM1146.34 318V73H1217.04L1302.79 204.6V73H1371.04V318H1300.34L1214.59 184.3V318H1146.34ZM1477.66 318.7L1542.76 229.45L1480.81 136H1569.01L1592.11 182.2L1614.51 136H1701.31L1640.76 228.4L1705.16 318H1615.56L1589.66 274.6L1563.76 317.3L1477.66 318.7ZM97.875 668L22.975 423H95.775L130.775 559.85L169.625 423H239.275L278.125 559.85L313.125 423H384.175L309.275 668H241.725L203.225 526.95L164.725 668H97.875ZM413.865 668V423H595.515V483.9H484.565V515.75H575.565V571.4H484.565V606.4H596.915V668H413.865ZM641.502 668V423H743.702C769.602 423 790.193 428.25 805.477 438.75C820.76 449.133 828.402 464.65 828.402 485.3C828.402 492.533 827.06 499.125 824.377 505.075C821.693 510.908 817.96 516.158 813.177 520.825C808.393 525.375 802.852 529.283 796.552 532.55C809.502 537.45 819.768 545.383 827.352 556.35C835.052 567.2 838.902 579.8 838.902 594.15C838.902 609.433 835.052 622.617 827.352 633.7C819.768 644.667 808.918 653.125 794.802 659.075C780.802 665.025 764.118 668 744.752 668H641.502ZM712.202 617.25H735.302C745.102 617.25 752.51 615.15 757.527 610.95C762.543 606.633 765.052 600.45 765.052 592.4C765.052 584.7 762.777 578.633 758.227 574.2C753.677 569.767 747.202 567.55 738.802 567.55H712.202V617.25ZM712.202 520.65H734.602C739.968 520.65 744.518 519.717 748.252 517.85C752.102 515.983 755.018 513.3 757.002 509.8C759.102 506.183 760.152 501.867 760.152 496.85C760.152 489.5 757.877 483.842 753.327 479.875C748.777 475.792 742.185 473.75 733.552 473.75H712.202V520.65ZM930.446 668.7L995.546 579.45L933.596 486H1021.8L1044.9 532.2L1067.3 486H1154.1L1093.55 578.4L1157.95 668H1068.35L1042.45 624.6L1016.55 667.3L930.446 668.7ZM19.475 1018L108.725 773H192.725L281.625 1018H201.825L188.175 974.25H110.825L97.175 1018H19.475ZM125.875 915.8H172.775L149.675 845.8L125.875 915.8ZM307.908 1018V773H378.608L464.358 904.6V773H532.608V1018H461.908L376.158 884.3V1018H307.908ZM586.13 1018V773H675.03C701.164 773 724.03 778.192 743.63 788.575C763.23 798.842 778.455 813.192 789.305 831.625C800.155 849.942 805.58 871.233 805.58 895.5C805.58 913.817 802.489 930.5 796.305 945.55C790.122 960.6 781.255 973.55 769.705 984.4C758.272 995.133 744.564 1003.42 728.58 1009.25C712.597 1015.08 694.747 1018 675.03 1018H586.13ZM656.83 952.2H673.28C681.914 952.2 689.73 951.092 696.73 948.875C703.847 946.542 709.972 943.042 715.105 938.375C720.355 933.592 724.38 927.642 727.18 920.525C729.98 913.408 731.38 905.067 731.38 895.5C731.38 882.667 728.93 872.05 724.03 863.65C719.13 855.25 712.305 849.008 703.555 844.925C694.805 840.842 684.714 838.8 673.28 838.8H656.83V952.2ZM844.187 1018V773H948.137C967.27 773 983.954 775.975 998.187 781.925C1012.54 787.875 1023.62 796.567 1031.44 808C1039.37 819.317 1043.34 833.083 1043.34 849.3C1043.34 861.2 1041.24 871.642 1037.04 880.625C1032.84 889.608 1027.24 897.192 1020.24 903.375C1013.24 909.558 1005.54 914.4 997.137 917.9L1057.69 1018H974.387L928.537 933.65H914.887V1018H844.187ZM914.887 878H940.787C950.47 878 958.054 876.25 963.537 872.75C969.137 869.25 971.937 863.067 971.937 854.2C971.937 845.217 969.137 839.033 963.537 835.65C958.054 832.15 950.587 830.4 941.137 830.4H914.887V878ZM1203.42 1023.25C1184.29 1023.25 1166.67 1020.04 1150.57 1013.62C1134.47 1007.09 1120.47 998.05 1108.57 986.5C1096.79 974.95 1087.63 961.417 1081.1 945.9C1074.68 930.383 1071.47 913.583 1071.47 895.5C1071.47 877.3 1074.68 860.442 1081.1 844.925C1087.63 829.408 1096.79 815.875 1108.57 804.325C1120.47 792.775 1134.47 783.792 1150.57 777.375C1166.67 770.958 1184.29 767.75 1203.42 767.75C1222.55 767.75 1240.11 771.017 1256.1 777.55C1272.2 784.083 1286.14 793.183 1297.92 804.85C1309.82 816.517 1319.04 830.108 1325.57 845.625C1332.1 861.025 1335.37 877.65 1335.37 895.5C1335.37 913.583 1332.1 930.383 1325.57 945.9C1319.04 961.417 1309.82 974.95 1297.92 986.5C1286.14 998.05 1272.2 1007.09 1256.1 1013.62C1240.11 1020.04 1222.55 1023.25 1203.42 1023.25ZM1203.42 957.1C1211.94 957.1 1219.7 955.7 1226.7 952.9C1233.81 949.983 1239.94 945.842 1245.07 940.475C1250.2 935.108 1254.17 928.633 1256.97 921.05C1259.77 913.467 1261.17 904.95 1261.17 895.5C1261.17 882.9 1258.72 871.992 1253.82 862.775C1248.92 853.558 1242.1 846.442 1233.35 841.425C1224.71 836.408 1214.74 833.9 1203.42 833.9C1194.9 833.9 1187.09 835.358 1179.97 838.275C1172.97 841.075 1166.9 845.158 1161.77 850.525C1156.64 855.892 1152.67 862.367 1149.87 869.95C1147.07 877.533 1145.67 886.05 1145.67 895.5C1145.67 908.1 1148.12 919.008 1153.02 928.225C1157.92 937.442 1164.69 944.558 1173.32 949.575C1182.07 954.592 1192.1 957.1 1203.42 957.1ZM1373.97 1018V773H1444.67V1018H1373.97ZM1498.39 1018V773H1587.29C1613.42 773 1636.29 778.192 1655.89 788.575C1675.49 798.842 1690.71 813.192 1701.56 831.625C1712.41 849.942 1717.84 871.233 1717.84 895.5C1717.84 913.817 1714.74 930.5 1708.56 945.55C1702.38 960.6 1693.51 973.55 1681.96 984.4C1670.53 995.133 1656.82 1003.42 1640.84 1009.25C1624.85 1015.08 1607 1018 1587.29 1018H1498.39ZM1569.09 952.2H1585.54C1594.17 952.2 1601.99 951.092 1608.99 948.875C1616.1 946.542 1622.23 943.042 1627.36 938.375C1632.61 933.592 1636.64 927.642 1639.44 920.525C1642.24 913.408 1643.64 905.067 1643.64 895.5C1643.64 882.667 1641.19 872.05 1636.29 863.65C1631.39 855.25 1624.56 849.008 1615.81 844.925C1607.06 840.842 1596.97 838.8 1585.54 838.8H1569.09V952.2Z" fill="black" fill-opacity="0.1"/>
</svg>
