<svg width="1920" height="1080" viewBox="0 0 1920 1080" fill="none" xmlns="http://www.w3.org/2000/svg">
<path d="M258.911 486.73C227.095 486.73 197.801 481.395 171.029 470.725C144.257 459.861 120.977 444.826 101.189 425.62C81.595 406.414 66.366 383.91 55.502 358.108C44.832 332.306 39.497 304.37 39.497 274.3C39.497 244.036 44.832 216.003 55.502 190.201C66.366 164.399 81.595 141.895 101.189 122.689C120.977 103.483 144.257 88.545 171.029 77.875C197.801 67.205 227.095 61.87 258.911 61.87C290.727 61.87 319.924 67.302 346.502 78.166C373.274 89.03 396.457 104.162 416.051 123.562C435.839 142.962 451.165 165.563 462.029 191.365C472.893 216.973 478.325 244.618 478.325 274.3C478.325 304.37 472.893 332.306 462.029 358.108C451.165 383.91 435.839 406.414 416.051 425.62C396.457 444.826 373.274 459.861 346.502 470.725C319.924 481.395 290.727 486.73 258.911 486.73ZM258.911 376.732C273.073 376.732 285.974 374.404 297.614 369.748C309.448 364.898 319.633 358.011 328.169 349.087C336.705 340.163 343.301 329.396 347.957 316.786C352.613 304.176 354.941 290.014 354.941 274.3C354.941 253.348 350.867 235.209 342.719 219.883C334.571 204.557 323.222 192.723 308.672 184.381C294.316 176.039 277.729 171.868 258.911 171.868C244.749 171.868 231.751 174.293 219.917 179.143C208.277 183.799 198.189 190.589 189.653 199.513C181.117 208.437 174.521 219.204 169.865 231.814C165.209 244.424 162.881 258.586 162.881 274.3C162.881 295.252 166.955 313.391 175.103 328.717C183.251 344.043 194.503 355.877 208.859 364.219C223.409 372.561 240.093 376.732 258.911 376.732ZM542.513 478V70.6H913.829V478H796.265V177.688H660.077V478H542.513ZM1002.88 478V70.6H1120.45V196.312H1173.99C1205.03 196.312 1232.77 201.841 1257.22 212.899C1281.66 223.957 1300.97 240.059 1315.13 261.205C1329.29 282.157 1336.37 307.474 1336.37 337.156C1336.37 359.466 1332.68 379.351 1325.31 396.811C1317.94 414.271 1307.17 429.112 1293.01 441.334C1278.85 453.362 1261.49 462.48 1240.92 468.688C1220.55 474.896 1197.27 478 1171.08 478H1002.88ZM1120.45 380.806H1166.43C1182.72 380.806 1195.53 377.799 1204.84 371.785C1214.15 365.577 1218.81 354.616 1218.81 338.902C1218.81 322.606 1213.96 311.451 1204.26 305.437C1194.56 299.423 1182.14 296.416 1167.01 296.416H1120.45V380.806ZM1387.59 478V70.6H1505.15V478H1387.59ZM1662.07 478V177.688H1557.31V70.6H1884.98V177.688H1780.22V478H1662.07ZM52.0535 865V571.7H177.335C199.821 571.7 219.863 575.68 237.461 583.641C255.059 591.602 268.886 603.195 278.942 618.418C289.138 633.502 294.236 651.729 294.236 673.098C294.236 694.607 289.557 712.903 280.199 727.987C270.841 743.071 257.294 754.593 239.556 762.554C221.818 770.515 200.38 774.496 175.24 774.496H136.692V865H52.0535ZM136.692 704.523H171.888C183.62 704.523 192.838 702.358 199.542 698.028C206.246 693.559 209.598 685.668 209.598 674.355C209.598 662.623 206.106 654.592 199.123 650.262C192.139 645.933 183.201 643.768 172.307 643.768H136.692V704.523ZM288.612 865L395.457 571.7H496.017L602.443 865H506.911L490.57 812.625H397.971L381.63 865H288.612ZM415.988 742.652H472.134L444.48 658.852L415.988 742.652ZM633.907 865V571.7H843.407V644.606H718.545V683.992H757.512C792.289 683.992 819.734 691.604 839.846 706.827C860.097 721.911 870.223 744.468 870.223 774.496C870.223 793.491 865.614 809.762 856.396 823.309C847.318 836.717 834.329 847.053 817.429 854.315C800.669 861.438 780.697 865 757.512 865H633.907ZM718.545 804.245H746.199C757.931 804.245 766.8 801.731 772.806 796.703C778.811 791.535 781.814 784.133 781.814 774.496C781.814 765.278 779.091 758.015 773.644 752.708C768.197 747.401 760.445 744.747 750.389 744.747H718.545V804.245ZM1056.19 871.285C1033.28 871.285 1012.19 867.444 992.918 859.762C973.644 851.941 956.884 841.117 942.638 827.29C928.532 813.463 917.568 797.262 909.747 778.686C902.065 760.11 898.224 739.998 898.224 718.35C898.224 696.562 902.065 676.38 909.747 657.804C917.568 639.229 928.532 623.027 942.638 609.2C956.884 595.373 973.644 584.619 992.918 576.937C1012.19 569.256 1033.28 565.415 1056.19 565.415C1079.09 565.415 1100.11 569.326 1119.25 577.147C1138.52 584.968 1155.21 595.862 1169.32 609.829C1183.56 623.796 1194.6 640.067 1202.42 658.642C1210.24 677.078 1214.15 696.981 1214.15 718.35C1214.15 739.998 1210.24 760.11 1202.42 778.686C1194.6 797.262 1183.56 813.463 1169.32 827.29C1155.21 841.117 1138.52 851.941 1119.25 859.762C1100.11 867.444 1079.09 871.285 1056.19 871.285ZM1056.19 792.094C1066.38 792.094 1075.67 790.418 1084.05 787.066C1092.57 783.574 1099.9 778.616 1106.05 772.191C1112.19 765.767 1116.94 758.015 1120.29 748.937C1123.65 739.859 1125.32 729.663 1125.32 718.35C1125.32 703.266 1122.39 690.207 1116.52 679.173C1110.66 668.14 1102.49 659.62 1092.01 653.614C1081.68 647.609 1069.73 644.606 1056.19 644.606C1045.99 644.606 1036.63 646.352 1028.11 649.843C1019.73 653.195 1012.47 658.084 1006.33 664.508C1000.18 670.933 995.432 678.685 992.08 687.763C988.728 696.841 987.052 707.037 987.052 718.35C987.052 733.434 989.985 746.493 995.851 757.526C1001.72 768.56 1009.82 777.08 1020.15 783.085C1030.63 789.091 1042.64 792.094 1056.19 792.094ZM1300.79 865V648.796H1225.37V571.7H1461.27V648.796H1385.85V865H1300.79ZM1498.91 865V571.7H1583.55V662.204H1622.1C1644.45 662.204 1664.42 666.184 1682.02 674.145C1699.61 682.106 1713.51 693.699 1723.71 708.922C1733.9 724.006 1739 742.233 1739 763.602C1739 779.664 1736.35 793.979 1731.04 806.549C1725.73 819.119 1717.98 829.804 1707.78 838.603C1697.59 847.262 1685.09 853.827 1670.28 858.296C1655.62 862.765 1638.86 865 1620 865H1498.91ZM1583.55 795.027H1616.65C1628.38 795.027 1637.6 792.862 1644.31 788.532C1651.01 784.063 1654.36 776.172 1654.36 764.859C1654.36 753.127 1650.87 745.096 1643.89 740.766C1636.9 736.437 1627.96 734.272 1617.07 734.272H1583.55V795.027ZM1775.87 865V571.7H1860.51V865H1775.87Z" fill="black" fill-opacity="0.1"/>
</svg>
