<svg width="1920" height="1080" viewBox="0 0 1920 1080" fill="none" xmlns="http://www.w3.org/2000/svg">
<path d="M68.8835 505V57.7H476.566V505H347.488V175.276H197.962V505H68.8835ZM574.342 505V57.7H765.403C799.697 57.7 830.262 63.7705 857.1 75.9115C883.938 88.0525 905.025 105.731 920.361 128.948C935.91 151.952 943.684 179.749 943.684 212.338C943.684 245.14 936.549 273.043 922.278 296.047C908.007 319.051 887.346 336.623 860.295 348.764C833.244 360.905 800.549 366.976 762.209 366.976H703.42V505H574.342ZM703.42 260.263H757.096C774.988 260.263 789.046 256.961 799.271 250.358C809.494 243.542 814.606 231.508 814.606 214.255C814.606 196.363 809.281 184.115 798.631 177.512C787.982 170.909 774.35 167.608 757.736 167.608H703.42V260.263ZM1217.72 514.585C1182.79 514.585 1150.63 508.728 1121.23 497.012C1091.84 485.084 1066.28 468.577 1044.55 447.49C1023.04 426.403 1006.32 401.695 994.39 373.366C982.675 345.037 976.818 314.365 976.818 281.35C976.818 248.122 982.675 217.343 994.39 189.014C1006.32 160.685 1023.04 135.977 1044.55 114.89C1066.28 93.8035 1091.84 77.4025 1121.23 65.6875C1150.63 53.9725 1182.79 48.115 1217.72 48.115C1252.65 48.115 1284.71 54.079 1313.89 66.007C1343.28 77.935 1368.74 94.549 1390.25 115.849C1411.98 137.149 1428.8 161.963 1440.73 190.292C1452.66 218.408 1458.62 248.761 1458.62 281.35C1458.62 314.365 1452.66 345.037 1440.73 373.366C1428.8 401.695 1411.98 426.403 1390.25 447.49C1368.74 468.577 1343.28 485.084 1313.89 497.012C1284.71 508.728 1252.65 514.585 1217.72 514.585ZM1217.72 393.814C1233.27 393.814 1247.43 391.258 1260.21 386.146C1273.21 380.821 1284.39 373.259 1293.76 363.461C1303.13 353.663 1310.38 341.842 1315.49 327.997C1320.6 314.152 1323.16 298.603 1323.16 281.35C1323.16 258.346 1318.68 238.43 1309.74 221.603C1300.79 204.776 1288.33 191.783 1272.36 182.624C1256.59 173.465 1238.38 168.886 1217.72 168.886C1202.17 168.886 1187.9 171.548 1174.91 176.873C1162.13 181.985 1151.05 189.44 1141.68 199.238C1132.31 209.036 1125.07 220.858 1119.95 234.703C1114.84 248.548 1112.29 264.097 1112.29 281.35C1112.29 304.354 1116.76 324.269 1125.7 341.096C1134.65 357.923 1147 370.916 1162.77 380.075C1178.74 389.234 1197.06 393.814 1217.72 393.814ZM1529.1 505V57.7H1860.74V168.886H1658.18V227.035H1824.32V328.636H1658.18V392.536H1863.3V505H1529.1ZM343.015 1028L165.373 799.877L327.679 580.7H489.346L322.567 799.877L508.516 1028H343.015ZM68.8835 1028V580.7H197.962V738.533H283.588V856.109H197.962V1028H68.8835ZM621.648 1028V698.276H506.628V580.7H866.385V698.276H751.365V1028H621.648ZM923.796 1028V580.7H1052.87V718.724H1111.66C1145.74 718.724 1176.2 724.794 1203.04 736.935C1229.88 749.076 1251.07 766.755 1266.62 789.972C1282.17 812.976 1289.94 840.773 1289.94 873.362C1289.94 897.857 1285.9 919.689 1277.8 938.859C1269.71 958.029 1257.89 974.324 1242.34 987.743C1226.79 1000.95 1207.72 1010.96 1185.15 1017.78C1162.78 1024.59 1137.22 1028 1108.47 1028H923.796ZM1052.87 921.287H1103.35C1121.25 921.287 1135.3 917.985 1145.53 911.382C1155.75 904.566 1160.86 892.532 1160.86 875.279C1160.86 857.387 1155.54 845.139 1144.89 838.536C1134.24 831.933 1120.61 828.632 1103.99 828.632H1052.87V921.287ZM1346.17 1028V580.7H1475.25V1028H1346.17Z" fill="black" fill-opacity="0.1"/>
</svg>
