<svg width="1920" height="1080" viewBox="0 0 1920 1080" fill="none" xmlns="http://www.w3.org/2000/svg">
<path d="M50.0645 333V57.9H129.451V154.971H221.413V57.9H300.799V333H221.413V227.283H129.451V333H50.0645ZM330.28 333L430.495 57.9H524.815L624.637 333H535.033L519.706 283.875H432.853L417.526 333H330.28ZM449.752 218.244H502.414L476.476 139.644L449.752 218.244ZM654.148 333V57.9H768.904C797.986 57.9 821.108 63.795 838.269 75.585C855.43 87.244 864.01 104.667 864.01 127.854C864.01 135.976 862.504 143.377 859.491 150.058C856.478 156.608 852.286 162.503 846.915 167.743C841.544 172.852 835.321 177.241 828.247 180.909C842.788 186.411 854.316 195.319 862.831 207.633C871.477 219.816 875.8 233.964 875.8 250.077C875.8 267.238 871.477 282.041 862.831 294.486C854.316 306.8 842.133 316.297 826.282 322.978C810.562 329.659 791.829 333 770.083 333H654.148ZM733.534 276.015H759.472C770.476 276.015 778.795 273.657 784.428 268.941C790.061 264.094 792.877 257.151 792.877 248.112C792.877 239.466 790.323 232.654 785.214 227.676C780.105 222.698 772.834 220.209 763.402 220.209H733.534V276.015ZM733.534 167.547H758.686C764.712 167.547 769.821 166.499 774.013 164.403C778.336 162.307 781.611 159.294 783.838 155.364C786.196 151.303 787.375 146.456 787.375 140.823C787.375 132.57 784.821 126.216 779.712 121.762C774.603 117.177 767.201 114.885 757.507 114.885H733.534V167.547ZM918.963 333V57.9H998.349V142.788H1034.5C1055.46 142.788 1074.2 146.521 1090.7 153.988C1107.21 161.455 1120.24 172.328 1129.81 186.607C1139.37 200.755 1144.15 217.851 1144.15 237.894C1144.15 252.959 1141.66 266.386 1136.68 278.176C1131.71 289.966 1124.44 299.988 1114.87 308.241C1105.31 316.363 1093.59 322.52 1079.7 326.712C1065.94 330.904 1050.22 333 1032.54 333H918.963ZM998.349 267.369H1029.4C1040.4 267.369 1049.05 265.338 1055.33 261.277C1061.62 257.085 1064.77 249.684 1064.77 239.073C1064.77 228.069 1061.49 220.536 1054.94 216.475C1048.39 212.414 1040.01 210.384 1029.79 210.384H998.349V267.369ZM1178.74 333V57.9H1258.12V333H1178.74ZM1486.7 333L1377.45 192.699L1477.27 57.9H1576.7L1474.12 192.699L1588.49 333H1486.7ZM1318.1 333V57.9H1397.49V154.971H1450.15V227.283H1397.49V333H1318.1ZM1615.92 333V57.9H1694.52V209.205L1788.45 57.9H1868.23V333H1789.63V179.337L1695.31 333H1615.92ZM23.587 683.844L102.079 576.234L27.385 463.56H133.729L161.581 519.264L188.589 463.56H293.245L220.239 574.968L297.887 683H189.855L158.627 630.672L127.399 682.156L23.587 683.844ZM475.852 683V465.248H399.892V387.6H637.478V465.248H561.518V683H475.852ZM675.392 683V387.6H894.41V461.028H760.636V499.43H870.356V566.528H760.636V608.728H896.098V683H675.392ZM919.895 683L1008.52 533.19L922.849 387.6H1025.82L1069.28 467.78L1112.75 387.6H1213.19L1127.52 534.456L1214.45 683H1110.64L1065.91 598.178L1021.18 683H919.895ZM1249.05 683V387.6H1334.29V491.834H1433.04V387.6H1518.28V683H1433.04V569.482H1334.29V683H1249.05ZM1723.81 689.33C1700.74 689.33 1679.5 685.462 1660.08 677.725C1640.67 669.848 1623.79 658.946 1609.44 645.02C1595.24 631.094 1584.19 614.777 1576.32 596.068C1568.58 577.359 1564.71 557.103 1564.71 535.3C1564.71 513.356 1568.58 493.03 1576.32 474.321C1584.19 455.612 1595.24 439.295 1609.44 425.369C1623.79 411.443 1640.67 400.612 1660.08 392.875C1679.5 385.138 1700.74 381.27 1723.81 381.27C1746.87 381.27 1768.04 385.209 1787.32 393.086C1806.73 400.963 1823.54 411.935 1837.75 426.002C1852.09 440.069 1863.21 456.456 1871.08 475.165C1878.96 493.733 1882.9 513.778 1882.9 535.3C1882.9 557.103 1878.96 577.359 1871.08 596.068C1863.21 614.777 1852.09 631.094 1837.75 645.02C1823.54 658.946 1806.73 669.848 1787.32 677.725C1768.04 685.462 1746.87 689.33 1723.81 689.33ZM1723.81 609.572C1734.07 609.572 1743.43 607.884 1751.87 604.508C1760.45 600.991 1767.83 595.998 1774.02 589.527C1780.21 583.056 1785 575.249 1788.37 566.106C1791.75 556.963 1793.44 546.694 1793.44 535.3C1793.44 520.108 1790.48 506.956 1784.57 495.843C1778.67 484.73 1770.44 476.15 1759.89 470.101C1749.48 464.052 1737.45 461.028 1723.81 461.028C1713.54 461.028 1704.11 462.786 1695.53 466.303C1687.09 469.679 1679.78 474.602 1673.59 481.073C1667.4 487.544 1662.62 495.351 1659.24 504.494C1655.86 513.637 1654.18 523.906 1654.18 535.3C1654.18 550.492 1657.13 563.644 1663.04 574.757C1668.95 585.87 1677.1 594.45 1687.51 600.499C1698.06 606.548 1710.16 609.572 1723.81 609.572ZM51.861 1039.33L25.486 961.471C35.0513 958.658 43.1397 955.563 49.751 952.187C56.3623 948.811 61.778 944.31 65.998 938.683C70.218 932.916 73.4533 925.32 75.704 915.895C78.0953 906.33 79.713 894.092 80.557 879.181C81.401 864.27 81.823 845.773 81.823 823.688V737.6H315.189V1033H229.945V815.248H162.003V819.468C162.003 849.43 161.018 875.735 159.049 898.382C157.08 920.889 153.704 940.301 148.921 956.618C144.138 972.795 137.527 986.369 129.087 997.341C120.788 1008.31 110.308 1017.17 97.648 1023.93C84.988 1030.68 69.7257 1035.81 51.861 1039.33ZM520.858 1039.33C497.789 1039.33 476.548 1035.46 457.136 1027.72C437.724 1019.85 420.844 1008.95 406.496 995.02C392.289 981.094 381.246 964.777 373.369 946.068C365.632 927.359 361.764 907.103 361.764 885.3C361.764 863.356 365.632 843.03 373.369 824.321C381.246 805.612 392.289 789.295 406.496 775.369C420.844 761.443 437.724 750.612 457.136 742.875C476.548 735.138 497.789 731.27 520.858 731.27C543.927 731.27 565.098 735.209 584.369 743.086C603.781 750.963 620.591 761.935 634.798 776.002C649.146 790.069 660.259 806.456 668.136 825.165C676.013 843.733 679.952 863.778 679.952 885.3C679.952 907.103 676.013 927.359 668.136 946.068C660.259 964.777 649.146 981.094 634.798 995.02C620.591 1008.95 603.781 1019.85 584.369 1027.72C565.098 1035.46 543.927 1039.33 520.858 1039.33ZM520.858 959.572C531.127 959.572 540.481 957.884 548.921 954.508C557.502 950.991 564.887 945.998 571.076 939.527C577.265 933.056 582.048 925.249 585.424 916.106C588.8 906.963 590.488 896.694 590.488 885.3C590.488 870.108 587.534 856.956 581.626 845.843C575.718 834.73 567.489 826.15 556.939 820.101C546.53 814.052 534.503 811.028 520.858 811.028C510.589 811.028 501.165 812.786 492.584 816.303C484.144 819.679 476.829 824.602 470.64 831.073C464.451 837.544 459.668 845.351 456.292 854.494C452.916 863.637 451.228 873.906 451.228 885.3C451.228 900.492 454.182 913.644 460.09 924.757C465.998 935.87 474.157 944.45 484.566 950.499C495.116 956.548 507.213 959.572 520.858 959.572ZM726.494 1033V737.6H916.394V815.248H811.738V1033H726.494ZM954.39 1033V737.6H1038.79V900.07L1139.65 737.6H1225.31V1033H1140.91V867.998L1039.63 1033H954.39ZM1289.85 1033V737.6H1374.25V900.07L1475.11 737.6H1560.77V1033H1476.37V867.998L1375.09 1033H1289.85Z" fill="black" fill-opacity="0.1"/>
</svg>
