<svg width="512" height="512" viewBox="0 0 512 512" fill="none" xmlns="http://www.w3.org/2000/svg">
<rect width="512" height="512" fill="white"/>
<path d="M127.559 208.776C128.28 208.955 128.681 209.673 128.183 209.977C128.183 209.977 127.722 209.363 127.559 208.776ZM127.559 208.776C126.914 206.444 131.278 203.855 142.203 191.723C139.946 180.139 142.495 174.679 171.884 169.232C166.504 167.932 139.273 158.726 134.35 154.834C114.25 138.946 167.208 108.01 180.425 105.12C193.641 102.229 209.827 104.75 229.858 113.015C290.911 67.3006 334.611 43.2728 366.542 36.393C398.154 29.5818 444.317 30.401 456.37 60.4228C468.414 90.3838 447.767 119.343 425.453 142.788C402.915 166.47 360.065 190.315 289.26 218.585C285.829 240.013 279.085 256.088 269.72 265.868C260.355 275.648 206.357 304.722 203.336 279.252C202.596 273.012 208.988 244.942 210.692 239.666C190.702 261.926 187.192 260.784 176.043 253.269C157.22 256.785 154.961 257.294 153.651 254.147C153.651 254.147 155.506 255.765 153.206 256.723C116.122 270.097 85.7051 280.734 72.2467 285.404C58.7883 290.074 54.8516 284.734 53.2629 281.864C51.6743 278.994 49.1734 272.853 60.228 263.877C71.2827 254.902 113.497 219.798 125.758 209.011C126.582 208.33 127.191 208.471 127.559 208.776Z" fill="white"/>
<path d="M186.576 246.12L153.312 186.296L181.384 178.726L185.452 161.482L141.324 145.705C184.956 97.54 205.664 118.534 231.992 127.017C275.391 93.9743 297.795 76.6439 339.867 57.8242C380.954 39.4449 434.056 39.064 445.216 63.1555C456.376 87.2467 433.996 121.392 401.208 147.441C368.42 173.491 334.008 187.254 277.107 209.98C275.804 267.549 240.342 270.42 215.411 276.681L224.273 230.442L207.783 226.284L186.576 246.12Z" fill="#444444"/>
<path d="M188.579 232.695L165.343 191.076L186.413 184.97L195.052 156.621L156.179 142.562C187.097 110.259 203.741 128.266 231.387 137.312C272.676 102.91 304.482 81.8771 342.573 64.2208C380.664 46.5644 430.222 48.0492 438.68 66.8538C447.138 85.6585 423.678 117.562 397.13 140.836C370.583 164.111 325.545 181.321 268.645 204.046C268.19 258.879 244.316 259.962 225.445 266.707L233.111 224.79L204.841 217.979L188.579 232.695Z" fill="white"/>
<path d="M188.599 232.692L167.797 195.38L190.296 188.477L198.863 158.291L161.066 144.555C188.482 116.089 208.481 135.047 232.371 142.425C273.66 108.022 325.767 74.7847 358.347 63.7606C390.928 52.7364 431.47 53.9376 438.701 66.8508C447.159 85.6554 423.698 117.559 397.151 140.833C370.603 164.108 325.566 181.317 268.665 204.043C268.21 258.876 244.336 259.959 225.465 266.704L233.132 224.787L204.861 217.975L188.599 232.692Z" fill="#8E49FF"/>
<path d="M60.3273 277.859C62.3113 281.452 67.0361 279.763 71.1441 278.466C74.7602 277.324 134.694 254.858 148.993 249.495C151.208 248.664 151.083 246.968 149.803 244.857L134.596 217.642C133.973 216.525 132.536 214.502 130.422 216.231C118.89 225.493 68.4608 266.001 65.5351 268.42C62.2302 271.152 58.3432 274.267 60.3273 277.859Z" fill="#444444"/>
<path d="M181.156 240.801L155.741 194.751C154.776 193.023 153.218 192.589 151.804 193.486L136.481 209.364C134.957 210.853 134.539 211.886 135.838 214.123L153.87 246.414C154.988 248.418 156.386 248.852 158.47 248.749L180.425 244.749C181.734 244.047 182.247 242.897 181.156 240.801Z" fill="#444444"/>
<path d="M140.517 244.437L131.715 228.657L76.8515 268.683L140.517 244.437Z" fill="#ED9428"/>
<path d="M130.11 225.788L131.712 228.655L76.8524 268.665L130.11 225.788Z" fill="#F5F5F5"/>
<path d="M171.086 238.644L154.269 208.511L145.903 216.976L159.503 241.377L171.086 238.644Z" fill="#C84152"/>
<path d="M154.305 208.511L151.501 203.495L143.101 211.953L145.905 216.976L154.305 208.511Z" fill="white"/>
<ellipse cx="31.2284" cy="31.215" rx="31.2284" ry="31.215" transform="matrix(0.969632 -0.24457 0.244795 0.969575 323.154 85.6836)" fill="#444444"/>
<ellipse cx="25.4854" cy="25.4745" rx="25.4854" ry="25.4745" transform="matrix(0.969631 -0.244571 0.244795 0.969575 330.621 90.1367)" fill="white"/>
<ellipse cx="18.9085" cy="18.9004" rx="18.9085" ry="18.9004" transform="matrix(0.969631 -0.244571 0.244795 0.969575 338.607 94.9102)" fill="#444444"/>
<ellipse cx="13.1538" cy="13.1481" rx="13.1538" ry="13.1481" transform="matrix(0.969631 -0.244571 0.244795 0.969575 346.193 98.0742)" fill="white"/>
<ellipse cx="13.1538" cy="13.1481" rx="13.1538" ry="13.1481" transform="matrix(0.969631 -0.24457 0.244795 0.969575 347 101.266)" fill="#444444"/>
<path d="M50.2048 374.123V343.499C52.6981 342.941 54.7368 342.105 56.3208 340.991C57.9048 339.876 59.1368 338.263 60.0168 336.151C60.9261 334.009 61.5568 331.164 61.9088 327.615C62.2608 324.065 62.4368 319.592 62.4368 314.195V297.123H112.157V342.531H122.189V374.123H105.293V358.723H67.1008V374.123H50.2048ZM79.1568 314.195C79.1568 320.208 78.8488 325.561 78.2328 330.255C77.6461 334.948 76.6634 339.04 75.2848 342.531H94.3808V313.315H79.1568V314.195ZM159.86 360.043C155.05 360.043 150.62 359.236 146.572 357.623C142.524 355.98 139.004 353.707 136.012 350.803C133.05 347.899 130.747 344.496 129.104 340.595C127.491 336.693 126.684 332.469 126.684 327.923C126.684 323.347 127.491 319.108 129.104 315.207C130.747 311.305 133.05 307.903 136.012 304.999C139.004 302.095 142.524 299.836 146.572 298.223C150.62 296.609 155.05 295.803 159.86 295.803C164.671 295.803 169.086 296.624 173.104 298.267C177.152 299.909 180.658 302.197 183.62 305.131C186.612 308.064 188.93 311.481 190.572 315.383C192.215 319.255 193.036 323.435 193.036 327.923C193.036 332.469 192.215 336.693 190.572 340.595C188.93 344.496 186.612 347.899 183.62 350.803C180.658 353.707 177.152 355.98 173.104 357.623C169.086 359.236 164.671 360.043 159.86 360.043ZM159.86 343.411C164.143 343.411 167.634 342.017 170.332 339.231C173.031 336.444 174.38 332.675 174.38 327.923C174.38 323.171 173.031 319.401 170.332 316.615C167.634 313.828 164.143 312.435 159.86 312.435C155.607 312.435 152.116 313.828 149.388 316.615C146.69 319.401 145.34 323.171 145.34 327.923C145.34 332.675 146.69 336.444 149.388 339.231C152.116 342.017 155.607 343.411 159.86 343.411ZM202.742 358.723V297.123H220.518V318.859H222.278L238.382 297.123H260.646L237.678 327.307L263.286 358.723H240.494L222.058 335.051H220.518V358.723H202.742ZM84.4808 470.043C78.0861 470.043 72.4248 468.752 67.4968 466.171C62.5981 463.589 58.7554 459.923 55.9688 455.171C53.2114 450.389 51.8328 444.728 51.8328 438.187C51.8328 431.821 53.2408 426.204 56.0568 421.335C58.8728 416.465 62.7594 412.667 67.7168 409.939C72.6741 407.181 78.3501 405.803 84.7448 405.803C90.2008 405.803 94.6888 406.492 98.2088 407.871C101.729 409.249 104.985 411.2 107.977 413.723L99.2648 428.331C96.0674 424.869 91.6088 423.139 85.8888 423.139C80.9314 423.139 77.1181 424.473 74.4488 427.143C71.8088 429.783 70.4888 433.376 70.4888 437.923C70.4888 442.528 71.8528 446.151 74.5808 448.791C77.3088 451.401 81.1368 452.707 86.0648 452.707C88.5874 452.707 91.1394 452.311 93.7208 451.519C96.3314 450.727 98.8248 449.48 101.201 447.779L109.297 462.651C106.539 464.763 103.122 466.523 99.0448 467.931C94.9674 469.339 90.1128 470.043 84.4808 470.043ZM117.148 468.723V407.123H162.82V422.435H134.924V430.443H157.804V444.435H134.924V453.235H163.172V468.723H117.148ZM174.382 468.723V407.123H200.694C205.417 407.123 209.626 407.959 213.322 409.631C217.018 411.303 219.922 413.737 222.034 416.935C224.176 420.103 225.246 423.931 225.246 428.419C225.246 435.195 223.061 440.445 218.69 444.171C214.32 447.867 208.174 449.715 200.254 449.715H192.158V468.723H174.382ZM192.158 435.019H199.55C202.014 435.019 203.95 434.564 205.358 433.655C206.766 432.716 207.47 431.059 207.47 428.683C207.47 426.219 206.737 424.532 205.27 423.623C203.804 422.713 201.926 422.259 199.638 422.259H192.158V435.019ZM233.593 468.723V407.123H259.289C265.801 407.123 270.979 408.443 274.821 411.083C278.664 413.693 280.585 417.595 280.585 422.787C280.585 425.515 279.837 427.876 278.341 429.871C276.875 431.836 274.953 433.435 272.577 434.667C275.833 435.899 278.415 437.893 280.321 440.651C282.257 443.379 283.225 446.547 283.225 450.155C283.225 455.904 281.099 460.436 276.845 463.751C272.621 467.065 266.857 468.723 259.553 468.723H233.593ZM251.369 431.675H257.001C259.025 431.675 260.595 431.147 261.709 430.091C262.853 429.035 263.425 427.568 263.425 425.691C263.425 421.819 261.196 419.883 256.737 419.883H251.369V431.675ZM251.369 455.963H257.177C262.164 455.963 264.657 453.88 264.657 449.715C264.657 447.779 264.085 446.253 262.941 445.139C261.797 444.024 260.169 443.467 258.057 443.467H251.369V455.963ZM292.89 468.723V407.123H310.49V441.003L331.522 407.123H349.386V468.723H331.786V434.315L310.666 468.723H292.89ZM391.707 470.043C385.313 470.043 379.651 468.752 374.723 466.171C369.825 463.589 365.982 459.923 363.195 455.171C360.438 450.389 359.059 444.728 359.059 438.187C359.059 431.821 360.467 426.204 363.283 421.335C366.099 416.465 369.986 412.667 374.943 409.939C379.901 407.181 385.577 405.803 391.971 405.803C397.427 405.803 401.915 406.492 405.435 407.871C408.955 409.249 412.211 411.2 415.203 413.723L406.491 428.331C403.294 424.869 398.835 423.139 393.115 423.139C388.158 423.139 384.345 424.473 381.675 427.143C379.035 429.783 377.715 433.376 377.715 437.923C377.715 442.528 379.079 446.151 381.807 448.791C384.535 451.401 388.363 452.707 393.291 452.707C395.814 452.707 398.366 452.311 400.947 451.519C403.558 450.727 406.051 449.48 408.427 447.779L416.523 462.651C413.766 464.763 410.349 466.523 406.271 467.931C402.194 469.339 397.339 470.043 391.707 470.043Z" fill="#444444"/>
</svg>
