<svg width="40" height="40" viewBox="0 0 40 40" fill="none" xmlns="http://www.w3.org/2000/svg">
<rect width="40" height="40" rx="20" fill="white"/>
<g clip-path="url(#clip0_100_2)">
<path d="M33.27 19.4917C33.2692 19.4884 33.2671 19.4856 33.2659 19.4824C33.2594 19.4627 33.2515 19.4435 33.2406 19.4257C33.2361 19.4183 33.2297 19.4123 33.2243 19.4052C33.2149 19.3928 33.2058 19.3802 33.1943 19.3693C33.1866 19.3622 33.1775 19.3564 33.1689 19.3501C33.1595 19.343 33.1509 19.3348 33.1403 19.3285C33.138 19.3271 33.135 19.3266 33.1327 19.3252C33.1303 19.3239 33.1285 19.3219 33.1259 19.3206L27.8192 16.6293C27.7331 16.5857 27.6299 16.5844 27.5427 16.6262L15.75 22.2777C15.7459 22.2796 15.7429 22.2829 15.7391 22.2851C15.7344 22.2876 15.7288 22.2889 15.7241 22.2919C15.7152 22.2974 15.7082 22.3045 15.7002 22.3108C15.6922 22.3168 15.684 22.3226 15.6766 22.3294C15.6648 22.3404 15.6551 22.3527 15.6457 22.3653C15.6406 22.3724 15.6347 22.3787 15.63 22.3861C15.62 22.4025 15.6126 22.4201 15.6064 22.4381C15.6047 22.4431 15.602 22.4472 15.6005 22.4521C15.5944 22.4745 15.5908 22.4978 15.5908 22.5213V27.0964C15.5908 27.2037 15.6583 27.3012 15.7636 27.3455L21.3651 29.7119C21.3695 29.7138 21.3745 29.713 21.3789 29.7146C21.4137 29.7277 21.45 29.7365 21.4871 29.7365C21.5131 29.7365 21.5387 29.7327 21.5638 29.7264C21.572 29.7242 21.5794 29.7206 21.5877 29.7179C21.5998 29.7138 21.6124 29.7108 21.6239 29.705L33.1218 24.1091C33.219 24.0621 33.2798 23.9687 33.2798 23.8669V19.5612C33.2798 19.5374 33.2765 19.5141 33.27 19.4917ZM16.1805 22.9498L21.1923 25.1051V29.0376L16.1805 26.9201V22.9498ZM21.782 29.0102V25.1264L32.6901 20.0063V23.7012L21.782 29.0102Z" fill="#EB6C44"/>
</g>
<g clip-path="url(#clip1_100_2)">
<path d="M24.3189 13.0981C24.318 13.0948 24.3159 13.0921 24.3147 13.0888C24.3083 13.0691 24.3003 13.0499 24.2894 13.0321C24.285 13.0247 24.2785 13.0187 24.2732 13.0116C24.2637 12.9993 24.2546 12.9867 24.2431 12.9757C24.2354 12.9686 24.2263 12.9629 24.2178 12.9566C24.2083 12.9495 24.1998 12.9413 24.1892 12.935C24.1868 12.9336 24.1838 12.933 24.1815 12.9317C24.1791 12.9303 24.1774 12.9284 24.1747 12.927L18.868 10.2357C18.7819 10.1922 18.6788 10.1908 18.5915 10.2327L6.79885 15.8841C6.79472 15.8861 6.79177 15.8893 6.78794 15.8915C6.78322 15.894 6.77762 15.8954 6.77291 15.8984C6.76406 15.9039 6.75699 15.911 6.74903 15.9173C6.74107 15.9233 6.73281 15.929 6.72544 15.9359C6.71365 15.9468 6.70392 15.9592 6.69448 15.9717C6.68947 15.9789 6.68358 15.9852 6.67886 15.9926C6.66884 16.009 6.66146 16.0265 6.65527 16.0446C6.6535 16.0495 6.65085 16.0536 6.64938 16.0585C6.64319 16.081 6.63965 16.1042 6.63965 16.1278V20.7028C6.63965 20.8101 6.70716 20.9076 6.81241 20.9519L12.4139 23.3183C12.4183 23.3202 12.4233 23.3194 12.4278 23.321C12.4626 23.3342 12.4988 23.3429 12.536 23.3429C12.5619 23.3429 12.5876 23.3391 12.6126 23.3328C12.6209 23.3306 12.6282 23.3271 12.6365 23.3243C12.6486 23.3202 12.6613 23.3172 12.6728 23.3115L24.1706 17.7156C24.2679 17.6685 24.3286 17.5751 24.3286 17.4733V13.1676C24.3286 13.1438 24.3254 13.1206 24.3189 13.0981ZM7.22928 16.5562L12.2412 18.7115V22.644L7.22928 20.5265V16.5562ZM12.8308 22.6167V18.7329L23.739 13.6128V17.3077L12.8308 22.6167Z" fill="#3D3D3D"/>
</g>
<defs>
<clipPath id="clip0_100_2">
<rect width="17.689" height="16.4255" fill="white" transform="translate(15.5908 14.9536)"/>
</clipPath>
<clipPath id="clip1_100_2">
<rect width="17.689" height="16.4255" fill="white" transform="translate(6.63965 8.56006)"/>
</clipPath>
</defs>
</svg>
